<?xml version="1.0" encoding="utf-8"?>
<!-- Generator: Adobe Illustrator 21.0.0, SVG Export Plug-In . SVG Version: 6.00 Build 0)  -->
<svg version="1.1" id="Layer_1" xmlns="http://www.w3.org/2000/svg" xmlns:xlink="http://www.w3.org/1999/xlink" x="0px" y="0px"
	 viewBox="0 0 128 128" style="enable-background:new 0 0 128 128;" xml:space="preserve">
<style type="text/css">
	.st0{fill:#FFFFFF;}
</style>
<circle cx="64" cy="64" r="64"/>
<g>
	<path class="st0" d="M25,99h50c0.6,0,1-0.4,1-1V86c0-0.6-0.4-1-1-1H25c-0.6,0-1,0.4-1,1v12C24,98.6,24.4,99,25,99z"/>
	<path class="st0" d="M25,71h50c0.6,0,1-0.4,1-1V58c0-0.6-0.4-1-1-1H25c-0.6,0-1,0.4-1,1v12C24,70.6,24.4,71,25,71z"/>
	<path class="st0" d="M25,43h50c0.6,0,1-0.4,1-1V30c0-0.6-0.4-1-1-1H25c-0.6,0-1,0.4-1,1v12C24,42.6,24.4,43,25,43z"/>
	<path class="st0" d="M91,99h12c0.6,0,1-0.4,1-1V86c0-0.6-0.4-1-1-1H91c-0.6,0-1,0.4-1,1v12C90,98.6,90.4,99,91,99z"/>
	<path class="st0" d="M91,71h12c0.6,0,1-0.4,1-1V58c0-0.6-0.4-1-1-1H91c-0.6,0-1,0.4-1,1v12C90,70.6,90.4,71,91,71z"/>
	<path class="st0" d="M91,43h12c0.6,0,1-0.4,1-1V30c0-0.6-0.4-1-1-1H91c-0.6,0-1,0.4-1,1v12C90,42.6,90.4,43,91,43z"/>
</g>
</svg>
